PERFORMER "陈奕迅"
TITLE "Mixed Up"
REM GENRE Pop
REM DATE 2000
REM DISCID 8C0E3F0A
REM COMMENT "ExactAudioCopy v0.99pb5"
FILE "陈奕迅.-.[Mixed.-.Up].专辑.(APE).ape" WAVE
  TRACK 01 AUDIO
    TITLE "幸福摩天轮(James Ting Remix)"
    PERFORMER "陈奕迅"
    REM GENRE Pop
    REM DATE 2001
    INDEX 01 00:00:00
  TRACK 02 AUDIO
    TITLE "美丽有罪 (Erandon VS Loopmusic Mix)"
    PERFORMER "陈奕迅"
    REM GENRE Pop
    REM DATE 2001
    INDEX 01 07:25:55
  TRACK 03 AUDIO
    TITLE "我的世界末日 (Teoh Remix)"
    PERFORMER "陈奕迅"
    REM GENRE Pop
    REM DATE 2001
    INDEX 01 12:43:12
  TRACK 04 AUDIO
    TITLE "时代曲 (Tszpun Remix)"
    PERFORMER "陈奕迅"
    REM GENRE Pop
    REM DATE 2001
    INDEX 01 17:50:15
  TRACK 05 AUDIO
    TITLE "超人的主题曲 (Club Mix)"
    PERFORMER "陈奕迅"
    REM GENRE Pop
    REM DATE 2001
    INDEX 01 24:19:25
  TRACK 06 AUDIO
    TITLE "美丽有罪 (James Ting Remix)"
    PERFORMER "陈奕迅"
    REM GENRE Pop
    REM DATE 2001
    INDEX 01 30:59:00
  TRACK 07 AUDIO
    TITLE "专家话 (Minimul Remix)"
    PERFORMER "陈奕迅"
    REM GENRE Pop
    REM DATE 2001
    INDEX 01 39:05:17
  TRACK 08 AUDIO
    TITLE "黑夜不再来 (Slow Tech Riddim Remix)"
    PERFORMER "陈奕迅"
    REM GENRE Pop
    REM DATE 2001
    INDEX 01 42:57:65
  TRACK 09 AUDIO
    TITLE "伤信 (梁基爵 Remix)"
    PERFORMER "陈奕迅"
    REM GENRE Pop
    REM DATE 2001
    INDEX 01 48:40:62
  TRACK 10 AUDIO
    TITLE "贝多芬与我 (四方果 Remix)"
    PERFORMER "陈奕迅"
    REM GENRE Pop
    REM DATE 2001
    INDEX 01 52:23:22
